<?xml version="1.0" encoding="UTF-8"?>
<svg id="Layer_1" xmlns="http://www.w3.org/2000/svg" xmlns:i="http://ns.adobe.com/AdobeIllustrator/10.0/" version="1.1" viewBox="0 0 3840 2160">
  
  <defs>
    <style>
      .st0 {
        fill: #980330;
      }

      .st1 {
        fill: #005294;
      }

      .st2 {
        fill: #072e5e;
      }

      .st3 {
        fill: #dfc298;
      }
    </style>
  </defs>
  <path class="st1" d="M2939.442759,794.0932824l6.9054963,55.3204608-19.1329505,24.9834339,77.0450953-27.4805041-55.1135887,41.3693283,5.5195079,55.6811658-33.5367135-61.2505067-6.3613236,32.549789c-1.2066753-1.3041433-5.5491985.6592752-7.254153,1.9290089l-37.3262762,26.8371154,49.3126221-61.1826602c-35.911132,5.451859-33.2821998,16.2873758-41.7575811,34.7253871l-14.2220083,32.8656089-7.0003351,3.5617155,29.9847205-61.4717486-35.1048123-30.2746162-6.799553-3.017265-.0248165-3.0494111,5.1294835-.1952684,1.4756086,1.9248583,4.0676707.4786045,67.1587069,18.6766194,14.5545216-79.0247067.0003435-3.9950521c.0000152-.1767313,3.0429123-.089552,2.480335.0386431Z"/>
  <polygon class="st3" points="1154.1981479 1831.5201848 1153.2420329 1796.9268516 1141.1017946 1831.6549294 1133.1202394 1830.9327112 1121.1218514 1795.382143 1120.243756 1831.7130622 1110.1044589 1831.7531715 1110.1088526 1785.3080272 1126.3557267 1784.267337 1137.3205058 1812.8739622 1147.4403884 1784.8357767 1164.12966 1784.5654677 1164.0989024 1831.6806224 1154.1981479 1831.5201848"/>
  <path class="st3" d="M2939.442759,794.0932824c.5625773-.1281951-2.4803198-.2153744-2.480335-.0386431l-.0003435,3.9950521-14.5545216,79.0247067-67.1587069-18.6766194c1.9368433-2.7064115,6.5706642-3.8569142,10.5565927-4.1554957l38.9816072-2.9200688,30.5252608-58.0559124c.1692707-.243896,3.5085377-2.2695767,3.6590433-1.5201912l.471403,2.3471719Z"/>
  <path class="st3" d="M2954.6663192,943.9671673l1.0482346,1.5945893c.3698153.5625684-.2575919,2.895486-.8843218,2.6520993-.6272847-.2436022-3.2933749-1.3742889-3.9189498-1.911469l-36.1430001-31.0359372,6.3613236-32.549789,33.5367135,61.2505067Z"/>
  <polygon class="st3" points="3004.2604001 846.9166731 2927.2153049 874.3971772 2946.3482553 849.4137433 3004.2604001 846.9166731"/>
  <polygon class="st3" points="1088.6455077 1827.8268045 1078.0595574 1828.1185857 1078.0297707 1790.0866169 1064.0418545 1789.9365026 1064.4429798 1781.7395024 1102.1542927 1781.6023415 1102.5301825 1789.9462747 1088.5603422 1790.0795176 1088.6455077 1827.8268045"/>
  <path class="st1" d="M1936.5086132,769.7049819l-8.6723141,16.3467561,4.4080055-16.2311313,1.0805014-3.3750143c.204461-.638647,1.5978943.2035685,1.9125273.80982l1.2712799,2.4495696Z"/>
  <path class="st3" d="M2851.1811813,857.9191742l-1.4756086-1.9248583,1.4756086,1.9248583Z"/>
  <path class="st3" d="M2651.0238722,673.3696892l-2.5886072-.0222384c-.4540605-.0633752.7624572-1.2479219.5697596-1.2919864-.2024735-.0463001,1.0934286,1.3196937,2.0188476,1.3142248Z"/>
  <path class="st3" d="M2638.9432294,673.3194575l-2.555353.002887c-.4872418.0397991.7735109-1.3126189.6086434-1.2719421-.1607822.0396688,1.0248951,1.2324608,1.9467096,1.2690551Z"/>
  <g>
    <g>
      <g>
        <path class="st3" d="M883.2632455,1762.5903017c-8.7267479-9.9739641-17.4137225-16.2764553-28.9755996-19.0771469l-78.7701598-19.0808917c-35.185229-8.5230949-64.9850778-28.4742387-91.5320691-52.3021922-13.0699543-27.7090148-16.2038889-57.6398724-6.6953658-86.3949904,19.6717211-59.4900655,76.9872668-73.9397972,136.31739-63.5212368l69.3418099,69.3966389c-5.5024078,36.1192517,16.8634683,69.259381,38.2433615,98.7151751-16.6469522,22.654666-31.020882,46.3686251-37.929367,72.264644Z"/>
        <path class="st3" d="M538.5269614,1772.7324284c-12.6577673-8.2922523-13.1217358-23.6806381-15.147141-37.3408511-8.0592675,7.1822147-12.3624628,16.1936195-15.1347963,28.5768282-38.0567491-17.4599691-60.9031227-46.4717944-60.4938725-88.0529426.0992298-10.0820718,3.3356883-19.5081083,10.2413222-27.3378812,8.6195418,21.8884201,17.4222919,42.3378398,39.9360724,54.4126998-13.5956758-41.9214979-17.6856611-84.5471893-13.4836801-129.921996,29.8438921,20.9161915,60.9642775,37.9020349,94.3508664,51.2665559,5.3871514,15.7849468,12.0846929,28.8296529,22.2698534,40.5639185l49.0687383,22.7790898-16.9956567,21.5372433c-8.9853282,11.3863914-8.4272061,27.8549451-14.9351174,41.4271542-13.5476219,28.2534827-52.5823123,39.8399608-79.6765889,22.0901813Z"/>
        <path class="st3" d="M438.195814,1748.138385c-40.0081967.5150781-76.2023414-15.0281502-103.9685106-41.8284126l-.6153368,18.295463c-19.4761023-5.2261975-36.5229603-16.7269564-50.1985251-32.1612071l-22.939416-30.9565151c1.7905277-31.76431,13.5481369-70.8539885,40.821484-84.1029853,16.6569653,11.889707,34.1208792,23.8701599,54.6814783,21.7910096,29.6682419-3.0001429,57.7033293-4.9655187,88.0437044-2.6748253l2.5025287,15.6453419c-33.1351199,34.7814817-38.1805069,97.1369783-8.3274068,135.992131Z"/>
        <path class="st3" d="M304.624917,1743.2734222c27.2314751,15.5050479,53.7360792,8.8580617,51.8273586,16.3612041l-2.2180246,8.7190103c-3.2898843,12.9324697-12.7977418,24.325066-22.9034507,28.6497144-48.9959118,20.9673654-93.6360419-62.4847441-100.0440357-115.7377872l11.2516417.0717797c16.0230965,25.7794217,35.9019745,47.0271366,62.0865106,61.9360787Z"/>
        <path class="st3" d="M296.7943856,1866.3332931c-16.5001512,10.1134921-37.7737718,1.778443-45.5307836-15.6354289-12.687402-23.6655023-20.793169-48.2185423-27.6380957-74.2399174-2.7466285-10.4414631-3.7730309-21.210905.1101369-31.868742,19.5773784,42.5727771,44.4451138,77.9329332,92.300077,81.6234341l-19.2413346,40.1206542Z"/>
        <path class="st3" d="M972.7639399,1651.9950376c-7.203659-15.0098007-10.0309137-33.3179975-9.8499326-50.9745222.1377794-13.4417603,5.932812-24.2358752,15.6175117-32.4362695l29.2550347-24.7713229c14.4230094-12.212497,26.8108584-24.4439777,38.2682893-40.1983903,11.2806276-.5143088,22.0421606,1.9197295,33.1827515,6.0218927l-49.752971,43.877356c-28.9474879,25.8898806-47.869882,57.3248784-56.7206836,98.4812562Z"/>
        <path class="st3" d="M996.4106319,1682.0523618l-16.8116203-.912878,14.7866589-47.0367552c7.9270527-25.2161654,24.5849047-45.8840646,42.6550081-65.1776267l41.0215355-36.8421763,32.9850082-33.8248242c5.199297-.4853256,12.2590223.9877063,18.057015,3.5532625-22.2384609,26.8990212-46.2374961,47.5687791-71.3940069,69.8640451-34.3635232,30.4550935-51.3817154,63.560685-61.2995986,110.3769527Z"/>
        <path class="st3" d="M538.0361706,1178.422268l-20.8452749,24.7940615c-1.3909251,1.6544124-7.1862137.7960117-7.0442465-1.4041856l2.0336334-31.5170959-32.6476816-15.1288804,34.6109258-10.5812209,3.2996072-37.1138797,19.7131415,30.6920431,33.8891308-7.9829951-17.8232572,31.247224,16.8951881,29.7044535-32.0811667-12.7095246Z"/>
        <path class="st3" d="M941.8976858,1805.7425818l-17.8147986-2.1736689c-16.9403023-2.0669674-17.8235716-29.6202175-8.3891276-51.9510135,6.9213523-16.3824501,17.0397147-30.1445073,27.8742838-44.6382635l22.1190215,2.1421944c-2.4051352,34.6739634-29.256336,60.9218897-23.7893791,96.6207515Z"/>
        <path class="st3" d="M958.5369055,1678.1258891c-6.0304868,5.0619181-12.9913745.3570519-17.3340528-5.2749531-12.7544826-16.5412459-23.8865055-32.5327616-28.7819112-53.5597741-2.0157924-8.658341-3.8234253-24.7820376,2.936757-31.531424l32.2138872-32.1624422c6.1125598-6.1027981,15.2946139-7.9879654,23.8959726-3.6565768l-17.885537,15.7573362c-11.0173879,9.7064284-12.3259473,25.9629167-13.5996874,40.3223861,1.746952,24.2189312,7.8192263,45.7770443,18.5545716,70.1054479Z"/>
        <path class="st3" d="M250.7963065,1889.4023856l-18.1876262.1509543-27.3057227-54.8692325c-24.0850575-48.3974965-19.7316459-99.6967579,3.107247-150.3710469,3.636328,9.2482848,6.1652202,19.5217083,6.9355303,28.9683337-7.065277,18.4068933-16.2005216,36.3932316-13.943868,56.8734821,4.0706871,36.9435047,22.0625189,90.1326655,49.3944397,119.2475093Z"/>
        <polygon class="st3" points="732.7098058 1183.7593625 713.4850578 1194.2286579 716.9099744 1168.476291 698.2928955 1148.4272273 721.2167225 1153.7646852 726.5938846 1130.8841529 736.1995441 1157.9779348 761.0160836 1166.5056427 745.1403215 1173.6043244 753.0271959 1203.5924049 732.7098058 1183.7593625"/>
        <path class="st3" d="M237.483713,1656.5370358l-8.4245361,1.5789768c-1.6658575-38.5508281,2.6385031-90.7000725,40.742491-91.6098949-21.4649348,24.1557773-30.4809106,56.085479-32.3179549,90.0309181Z"/>
        <path class="st3" d="M182.5567687,1654.7396995c2.2643968-21.3641103,7.8099421-43.252072,26.7566318-53.1313409-3.5398741,18.2145445-5.1980676,33.5562261-4.2027919,51.428891l-22.5538399,1.7024499Z"/>
        <path class="st3" d="M634.1715756,1645.164426c-7.6445601-3.7709244-18.820004-8.7775779-24.3664881-16.7463638-8.9552431-12.8662434-15.3789231-27.4401945-17.5465885-42.7509596l-8.8684982-62.6404298c-14.1687661,15.1930814-17.5972297,35.704216-16.5764934,57.9146472-77.7815999-26.9642418-136.4604478-89.5447365-180.3531095-155.1457443-33.8629201-20.506791-70.5953481-39.3991207-94.7497146-71.2492462-14.6780597-26.2111127-8.3412102-62.1087159,1.3837072-89.0399539,11.052491-30.6076907,29.2939628-54.1643782,51.0476039-77.6556075,39.2286097-42.3620239,90.9867184-69.3106733,147.6978288-83.1386816l8.3244339,26.7199613-21.4046269,5.6015795c-6.2111253,1.6254482-9.7312658,10.4331298-9.3588225,15.8852979.4069792,5.9577355,4.1974338,14.3901005,10.5317273,16.7587559l20.5829065,7.6968035-1.3692437,23.9219055c-.4040802,7.0596399,7.1045487,14.9863967,12.3821593,16.2391732,8.5926426,2.0396844,15.2687686-3.0566459,20.621131-9.3604681l12.1334126-14.2903021,21.4312862,8.9764321c5.5019616,2.3044807,15.3058088-1.9107188,19.0192626-6.0045329,4.5744098-5.0429558,4.7798232-15.679231.8498557-22.1711825l-10.1135534-16.706677,12.7836254-13.7075466c6.2772175-6.7308959,8.3016562-15.4655006,3.6710946-22.9588135-4.8843163-7.9039463-12.9909924-10.9374903-22.8826817-8.2397914l-14.2433085,3.884489-6.1341996-24.8880507c53.2767629-6.094257,106.3101835-5.209949,159.1844846,8.0511003l4.3047031,22.346616c-7.0748004.4309529-14.3416591,1.3172004-17.9639377,4.871533-4.3793468,4.2971998-6.2880598,14.022809-3.2506658,20.1648405,3.1442327,6.3580743,10.4108005,12.7149484,15.9902624,18.0149635,2.2117114,14.2952112-7.7821053,24.272751,6.9774552,35.5672864,6.5855884,5.0395242,15.556564,4.2457308,22.7375935-3.4093408l8.7390911,8.7715899c7.3719722,7.3993869,16.411392,7.8957871,24.1760539,2.2187974,14.2680965-10.4318561-.8510517-27.5905591,2.2404381-33.1337022,3.0288305-5.4307929,17.0865174-8.2988326,11.9053572-25.8904825-1.6383955-5.5628621-7.7581601-10.0178839-14.7857635-12.5669362l-11.7008911-4.2441473-2.9205563-19.8728005c18.1092709,7.4901906,33.075095,16.8186304,48.352842,28.8657549,9.5463383,96.1268799-7.7144204,189.9604062-40.7162922,280.6830038-3.93194-3.7995546-9.3275202-9.3432727-13.8077615-10.3552559l-30.0974113-6.7983111-14.8358644-39.8706774c29.6036797-28.2284435,44.9425334-68.2645691,35.9757956-107.8809296-12.8071173,31.1441718-32.1303435,56.2871138-59.231094,75.2204549-26.8695145-32.9039616-62.6932712-55.2987206-103.1760032-65.3786314-27.8129344-5.3997581-55.7438313-3.4758716-79.6329724,11.9951729,85.6188339,5.6762967,163.5845366,42.6496494,185.0143263,127.47595-15.1301947,3.9525059-24.8064779,14.7198222-26.3635073,29.7716243,36.1442643-13.8972667,67.8167184-15.6269806,89.6219279,17.1078191-18.8915519,6.5522944-34.1833607,13.2136999-49.8476795,21.9712731l42.4579218-3.8337668c11.7326028-1.0594033,23.6556088,2.5296374,31.3996143,11.8418362-44.9495851-.8786273-80.4531654,18.2374945-105.5294989,52.1763895-23.0051294,31.1356789-34.8171163,68.9728679-26.7251791,106.4301358l.2614295,1.5666259c-.2744536.5480853-1.3024752,2.593357-.8598844,1.7123084l-2.3870402-.4947877Z"/>
        <path class="st3" d="M982.7595785,1804.7793921l-19.0375686-4.2980292c.5474805-33.6465765,20.4804251-58.1324963,18.6531331-92.3277593l30.5160154,6.9315727c-17.9633747,29.5594872-42.6869717,60.2322528-28.6637478,87.4763745l1.7233162,1.1629934-1.5207223,1.9753678-1.6704261-.9205199Z"/>
      </g>
      <g>
        <path class="st2" d="M788.7831755,1750.2390653c-41.7097741-6.1258409-80.171813-19.4631486-114.5020668-42.171081l-20.9954251,23.302563c-3.2332969,29.3874695-20.3143772,54.0179202-47.1267374,66.9503824-29.6933102,14.3220369-65.796319,15.5447561-90.3531971-6.2420561-40.86414-4.6693293-80.544483-9.0197491-120.3583498-17.9205522l-16.3089813-4.9063641-10.0860088,22.3036485-9.3966458,12.0327908-44.4115841,79.7143611c-5.8293564,10.463113-19.8738331,9.5413281-29.1824404,12.8938313-15.6283625,14.5599973-42.2692239,12.0109688-66.0666549,9.4757707-16.3368141-28.5732942-30.2025664-56.8864795-41.9113857-87.8150759-11.845371-31.289295-10.4088071-62.9643996-1.6504764-95.3249592l12.0821343-44.6414548-29.6169343,3.9529451c-2.4300693-34.5980237,6.0586063-78.1725178,33.9355932-99.0112741l27.8252642-14.326618c16.5054567-13.344549,20.2744191-35.3406111,77.931744-21.2955304,17.5963961-10.9855109,5.9412658-28.0989672,18.881729-33.1945394,5.2913411-2.0835738,13.6169488.3712041,14.6119282,5.6962485,2.6946889,14.4217451-3.121347,24.5094957-11.2661655,36.7810808,10.8466603,5.1422405,23.698092,16.1060777,35.7370525,14.284627l83.8234106-12.6821756-.3945962-17.7372442c-31.3026318-24.8660958-55.2763801-54.1597728-77.3663181-86.9440098-40.7778917-25.4818579-78.3513127-53.5021577-110.8339188-89.3011711-43.8882993-48.3692044-73.0101354-107.2807073-86.7916438-171.0780584-23.3082337-107.8984625,9.5180094-225.316195,103.5766635-287.4164562-52.4782665,7.977926-108.6446622,17.2258627-158.3993917,4.0918036-22.224117-5.8666356-40.9136081-19.267481-53.1300623-38.8791825-9.1061783-14.6186158-16.7316403-30.3585113-20.3404491-47.9295917-18.5914089-90.5204893-.918525-185.310931,48.1300517-263.6328898,19.8631855-31.7180171,61.2432829-76.0761271,96.2174229-64.3205179,13.8557387,4.657231,24.1205921,16.0200906,32.5146596,28.2666934l26.3334511-32.6819661c-31.6687985-11.2506452-62.7776745-21.6637965-93.2554857-34.8965203-29.4453079-12.784436-53.0065443-35.2227874-61.8534989-66.5203441-16.8050399-59.4505918,21.5987446-122.4080892,82.641472-133.7529078,26.4968936-4.9244597,54.3087355-.2202848,78.3130287,13.3555702l488.721649,276.4011482c8.1237743-1.5249634,15.8212702-5.6583766,24.1043848-6.7327295,31.3120681-4.0612997,63.7974153-7.6311138,95.1119197-1.8224037,16.1954823,3.0041945,23.6586127,24.5314774,27.6902423,38.4144992,28.9080605-6.4451548,39.4803459,14.2856669,54.8110522,38.8881491l51.3312452,12.9853842c14.4457703,3.65438,30.9336456,32.4720086,39.3423925,50.3865764l8.6236078,2.1925209,44.5786078,20.7848816c7.1138015,39.1272901-9.6686861,85.7773656-35.0657419,118.5194708l46.624555,92.0058888c-3.9927082,30.0730183-19.2125482,57.1574014-46.165387,73.8935309l3.2602212,47.5455582c-69.3329549,43.3205009-144.7576357,71.0235298-224.5282407,87.7492967,18.3767729,115.0685889-4.0320893,231.3512058-42.4777422,340.1310457l29.764647,28.4523036,17.5586883,4.4095938,59.8162011,72.4155584c4.3199917,5.2299311,15.0299084.8940891,19.2976572-3.1460652l31.9799823-30.2745242c14.4087867-13.6403816,51.4683801,4.2756379,56.079921-1.2304547l32.103924-38.3314785c15.8870474-18.9688343,44.027538-10.5989426,69.4009214-1.9606479l8.6390462-12.0385066c18.5442036,4.0434993,36.0066345,9.5965439,53.0286065,18.9361485-2.7435647,33.4816414-10.3762097,63.2328026-19.3324571,94.4605061-5.154976,17.9738293-11.3792396,34.7936813-21.6822024,50.5174969-15.3449597,23.4186342-33.0461741,43.1010568-55.4516159,62.2626567l20.4606513,11.1571282c-13.5173223,29.5524077-26.8406676,57.3635171-43.295462,83.8901867-12.1844879,19.6425356-31.7193659,27.6461515-54.1993617,25.367805l-33.3026351-3.3752205-31.0587231-.9250105c-18.8550138,17.6450149-10.9488654,32.6523092-19.9023125,38.1161282-4.0454487,2.4687251-14.1995838,2.1551226-15.6881248-2.1145373-5.1902196-14.8873782,3.3702574-28.5269253,10.9558533-41.0612562-32.7769561-13.9514995-33.0105295-48.8321161-61.2432554-55.043357l-46.8499027-10.307047ZM599.4527701,536.3348043c25.4060692,14.4428722,39.2392498,40.4225314,35.7693246,69.8346718.0740472,1.6723781.0168424,7.2689876,1.600559,7.8325479l6.7771056,2.4116104,63.0053349,22.3291126-6.226115-32.7184803c-2.4705218-12.9826897,2.7209747-25.4190669,10.7625683-36.8886406L244.4750121,305.9916991c-14.7699801-8.3284964-28.7795266-14.6165138-44.6924169-17.5018641-35.8958007-6.5086831-68.2830223,13.0973283-80.0846362,47.3757833-12.1555761,35.3065581,2.5209925,74.738794,38.1899707,90.3324734l111.4692786,48.7318753c15.3760206-11.416122,33.3834341-6.4061947,43.3783172,10.3723536,15.1357-13.251817,24.2553623-20.1406452,41.0076524-9.3327417,11.0381845,7.1213924,22.2538689,7.8825543,34.7461239,4.5305907,10.8606929-2.9141775,23.0250512,4.2395265,30.0773382,12.9702441l27.6813887,34.2695053c50.1763827-10.2972795,108.4253426-15.0129278,153.2047414,8.5948853ZM378.2886355,499.8482313c-11.826244.779996-22.3238131-.1605779-31.5321783-6.7432213-6.9367619-4.958777-19.485902-1.9204425-20.4250868,5.4251732l16.5496985,31.7477967c-36.1570977-6.3687867-42.7567119-44.7172706-59.8630752-44.616057-16.0686992.095074-47.1440984,38.5423041-52.3007493,61.937385,7.0456903,14.809747,11.6665802,29.1011139,16.8414796,45.121175,5.0757144,5.0279371,17.7442258,4.6674049,24.9146188,1.8675943,51.4381937-20.0849799,94.3404292-48.2659548,148.5064673-61.9445041-16.3971678-24.2107451-17.7002705-34.4436087-42.6911746-32.7953419ZM520.0572303,667.9776825c9.0656976,6.5309241,15.8732438,14.3400434,18.6813014,25.1306917,11.5673052,6.1971401,19.118985,15.6339006,24.8605661,28.3094946,26.2620277-33.6764626,41.5279084-72.0113454,42.7133336-113.1782819.7006954-24.3334499-9.0560161-44.6504066-30.5502737-56.3672303-44.1839038-24.0852708-110.6974278-15.6795645-159.573285.4289172-38.4836293,12.6834161-73.6692774,29.6298629-109.5212883,48.2320746-16.8943255,8.7658073-33.1755532,16.8682944-50.6518573,23.4471392-16.0193759,6.0303934-31.3803051-1.3844125-36.0517349-18.0718835-7.8330738-27.9816241-16.7062587-60.8993269-38.4175946-79.0982522-11.5749689-9.7023967-24.940776-7.9569384-36.6440084.1970074-20.4980337,14.281512-36.5081276,32.7131754-49.4722237,54.6508666-31.4339197,53.1921097-43.0427562,113.897905-38.7641318,175.4970063,1.8493264,26.6246427,3.9359229,52.0872616,13.1676485,76.6627389,11.5316629,30.6980658,36.2565528,50.482658,69.1225516,53.5607896,46.0204842,4.3101416,90.6818843-.1533797,136.7799606-10.5959334-3.9443603-13.477852-8.4719519-24.4914644-14.1563108-36.1748271-17.1831778,2.5457391-31.9756323-2.7224929-44.9190224-13.3236517-19.0180583-16.8235936-29.0687066-40.5850141-26.0076113-66.5641046,19.0189641-45.7398966,48.7306036-86.03381,90.6695068-113.3666871,55.4415757-36.1329852,143.5812789-64.1516071,207.1965681-43.8588032,29.8196272,9.5122392,38.7630415,33.8050447,31.5379057,64.4829289ZM753.0700175,884.548992l32.7453006-.5461254c14.3684168-39.6470825,28.5786078-76.6182004,45.4089746-114.6714944,2.7769665-6.278694,1.6377013-9.4058736.3104713-16.5069674-1.9357544-10.3568881-.2668883-23.3039547.526099-34.5904929-11.237963-6.9485685-19.0658272-15.8039189-25.0330453-27.4895226-12.1314991-23.7571157-2.9848581-42.0338645,12.6779886-65.1758929l-41.1555693-24.9312033c32.5090782-8.9995282,57.3202588,17.2515133,65.5300331-3.0174397,2.6544955-6.5536325,5.7320249-16.3104443,1.3994878-23.2384896-8.0938232-12.9426183-50.9478642-11.3935167-75.6365514-10.3726026-13.4544327.5563609-27.4528356,4.9416649-34.909568,16.8910494-20.2984318,32.5281577,11.1298649,89.4446341,32.0736047,125.7760324-8.6020475,1.2586094-15.9777667-1.3152629-24.2077836-8.6667627l-120.7424818,73.9763046,6.1774597,21.1987254,23.829516-8.6921016-15.308403-6.7573694c10.9792885-6.6488458,22.1947805-9.1377871,34.1896204-6.576792,43.0114257,9.1832863,83.8889856,29.0862145,101.289088,70.611173,3.0503147,7.2795085,2.7228008,15.9273995,1.6622524,24.8721107l-8.9957712-9.14317-11.8307226,27.051031ZM946.4084039,734.6058304c12.8608864-20.4894122,13.3725375-40.004772,13.4437779-63.1398929,7.9374403,5.4482143,12.7701092,10.8994193,18.6727061,18.5800062l21.7678202,7.9744967c-4.6785915-15.5957971-7.0970705-33.6454134-20.6483362-43.7258706-13.02418-9.688371-65.740983-10.6267163-94.1011328-20.9016868l17.0891991-11.9634792c-8.6838981-13.7731108-21.2051894-22.198594-31.2042098-14.2042619-16.3776971,13.0941576-30.86333,27.648675-39.2904674,47.0217543-6.8578802,15.7655265,10.0600464,48.7781087,28.0708769,49.6962832,12.4310071.6337206,25.8305855-3.7848841,36.559599-8.0279523-10.9365628-9.2276811-17.7718132-16.4239901-23.4261495-28.2664086,18.6332473,1.4085325,34.2305704,6.3490233,49.0323273,16.1087708,17.0025774,11.2108895,13.1893864,30.8871536,24.0339892,50.848241ZM338.3105379,656.1482628l-2.1446515,11.6458309c-2.0051782,10.8884666,6.5831701,18.9052972,15.3893929,20.6614769,6.5292705,1.3020989,13.0809639,2.1351722,19.1199304,1.0423623,5.0811188-.919478,11.5008834-2.616838,15.2573702-5.3422364l8.0217873-5.8199503c5.2136078-3.7825658,9.8596354-9.8275099,12.5173139-15.6446502l2.6386764-5.7755482c.4044223-.8852017.4807838-3.1804967.2704708-4.226899.7172865-3.0221285,3.7054543-10.153922,6.6712547-12.0976798,9.9270726-6.5061102,21.3678099-4.1709846,30.6554716-.4759469l9.9525966-7.2439156c-2.0218829,3.2981583-3.8019875,10.3914209-4.0446458,14.7426129-.5109036,9.1611958,5.9161583,15.3625363,13.2753107,16.7294557l12.1377422,2.2545144c2.7062361.5026675,7.4095017-.5308374,10.1337862-1.8751902l7.866576-3.8819198c9.8895441-4.880194,10.2301907-17.6665105,4.9514262-27.3922477-1.7317112-3.190551-3.9836407-5.9601533-6.4095288-7.7149929l-2.5325453-2.207739c-7.6587238-6.6764703-19.8352921-11.0735631-32.1779204-11.7295591-44.2216393-2.3503276-88.3918708,6.2283981-127.5505828,26.1549197-48.7155516,24.7896686-77.4420239,73.5726787-72.6699103,128.5144268-8.0016443-8.2319284-16.2898267-16.2447513-27.8021962-18.4368368-7.9607075-1.5158088-14.873009,5.7677729-16.6898823,13.2636339-4.8075623,19.8345253,5.1321212,40.8575242,22.4937069,50.8237622,13.4771554,7.7364211,28.316565,6.3517876,39.2290068-2.8654723,11.9151935,22.8173469,23.5348558,44.7853614,46.6398056,57.1216061-34.7991307-49.2400819-51.2850126-106.3923157-26.2957037-161.0518301,6.179694-11.3721732,15.2562983-19.4399755,26.1693841-25.4249673,1.4722733-10.4280518,6.8637319-19.2236367,14.9265575-23.7470202ZM599.841713,805.1049005c-5.8843202-14.0561185-9.5426846-28.2120781-9.8154476-42.5433339l132.3666318-79.8160981c-2.2144744-4.8779013-5.1520259-10.2761092-7.6078418-13.2605828l-82.0365762-30.2880354c-12.6317658,54.4571725-42.3371472,98.1129137-77.5354919,138.869515,2.7110718,17.7133722.682359,34.8358069-4.7331411,50.1358314l49.3618668-23.0972961ZM444.5425161,811.7386874l-54.8697389-22.9847474-20.487799,24.0179002c-26.2166602-12.3958892-34.8091566-45.1077543-17.671176-69.4051301-.1444133,13.4613511.3615437,25.1570415,8.5611298,36.2429363,21.4189372-26.3409313,47.9164668-43.0862761,80.4379204-50.8743956l4.262217-16.9453351,19.1789664,12.6123274c25.4681214-2.8397066,48.0927248,5.7531967,66.835528,24.037803,8.16804-17.4063089,3.5657974-37.1934152-13.6236198-47.2990804-5.0085906-9.7049747-13.1670103-17.74567-22.8548739-21.7212542-14.2350752,3.271401-27.7505879,2.2034523-39.571543-3.5115304-11.4969113-5.5583199-13.5172644-14.1120751-16.3119729-25.1222591-1.8238268-7.1852459-20.025194-5.9730618-20.6766721,2.1785092-1.4648413,18.3287171-9.7662901,32.2211943-25.678234,41.4926324-17.2382523,10.0442404-38.7482489,15.717746-57.9301247,7.4919452-7.8305419-3.3579864-14.6294898-3.4186134-19.673418,4.9972792-28.3685366,47.333457-10.5643508,124.0411842,32.1178748,158.5573126l53.9309183-16.9136754-6.9231918-20.0118518c43.985348,16.160518,91.3304619,15.0571547,132.962625-7.6771509,3.3360427-11.9539978,4.6056151-23.962155,2.2875355-35.623692-3.0942851-15.5663853-15.009171-26.6120321-31.1188583-28.2293545l-4.2925232,42.4954178c-16.377763,5.7563252-32.0393834,9.2629026-48.8909697,12.1953936ZM987.4936075,772.0923916c-1.3435334,10.9649249.2284861,19.6958638,5.0498984,27.0676064l24.3279446,5.8970355c3.0960534-32.1066673,15.7465644-59.3717754,36.3342929-86.01253l-23.3367555-10.5943833c-15.2939727,11.0363705-24.2123335,23.9313107-33.0962419,40.1604864l-5.365163-23.8323981-10.9607439-5.0401011c-2.9983732,15.3331956-9.9172956,25.8183604-19.233356,37.7105112l26.2801245,14.6437729ZM1062.827227,918.2264225c-9.8811701-30.3730956-25.7910348-56.9675189-38.5341795-83.8774407l-47.7720847-19.291486c-4.7416691-8.6431945-7.6349878-19.5264659-9.6717205-29.7044733l-64.0000721-31.9227693,23.8979832-10.7803672-6.5284768-18.6425701c-19.4122447,1.4629359-37.0245641,1.4107814-55.1378638,5.6246417-8.6555522,2.0136192-10.4775012,16.9734092-8.8101776,24.4877833,4.5090042,20.3213969,53.6455065,34.0738508,80.1113793,46.826945l-24.1969082,6.6494921-14.4379933,125.6054611c20.3355912,45.3254816,77.3079163,50.1340876,121.7230444,35.8367604,21.0703627-6.782596,43.7554161-27.0991661,43.3570697-50.8119769ZM470.6311361,759.5134975c6.6625804-1.5438039,10.9396596-8.8215735,10.7045641-15.2470871-28.6820949-6.0385902-60.547849,8.2085737-87.8982126,21.2220003l22.3478463,6.7335508,54.8458022-12.7084639ZM479.245152,787.417002l-.1978053-13.9460667-24.911159,3.4366107c-7.420331,1.0236693-15.6089666,6.5666859-22.1546723,11.9405663,3.6845035,1.6864114,11.4920094,5.0189027,15.5569695,4.2859463l31.7066672-5.7170565ZM872.9656114,917.2365607l12.2502497-113.3182879-31.7169996-16.9106703-24.5599016,50.0701579-23.6083175,74.2163113c-22.4915495,6.4584313-45.7955943,6.3544207-68.598385,2.4213109l-10.6416862,16.1664619c49.5410185,5.7833247,100.4174824,5.5421618,146.8750402-12.6452838ZM482.9023531,1083.4083238l-11.9875502-32.7234355c-61.6442694,2.9195154-113.7557703,5.1334456-172.3043429-17.2528937-5.7606894-2.2026284-11.1295281-6.7297358-15.0235279-11.3984558,113.8221288,12.1387148,228.805054-5.3242313,338.3098205-33.8337382,18.8210555-15.37558,37.0327495-29.3732602,53.2398944-47.0203909,27.5143207-29.9589358,49.7029382-61.5222567,67.1560163-99.1118182l-60.9280398-39.9781666c-41.6091506,10.9540054-80.9274832,27.5924829-113.7994207,54.949469l27.7080567,13.6746479c8.7793127,4.3328196,16.0289639,12.290998,15.86301,22.2455584-131.8931299-47.9263817-270.1727578-22.7384108-363.8211012,80.5822578-87.7419459,96.8042379-60.7853483,234.478425,7.1540921,340.8954488,2.3581396-29.1809844,5.4330569-53.7077555,17.3520561-78.6246676,39.8034778-83.2099861,122.2097888-128.1122573,211.0810365-152.4038153ZM1018.8191074,1022.3057754l-3.1998732-20.6253002c-55.1085446,12.1119633-115.1637295-2.0676517-142.9217352-52.8743228-44.1149565,13.0934606-86.0414311,16.272441-132.4627595,20.8287202l26.0984745,28.0462998,13.9626735,20.1157458c15.6545867,22.5532515,24.9307965,47.57627,34.0093388,74.1733228,72.302347-11.4467591,141.6975234-31.4066717,204.513881-69.6644656ZM790.6766112,1110.5041136c-1.8729829-25.1448173-12.8592007-42.7197757-23.1469092-62.1319474-16.8603995-27.6194307-38.2656234-51.905897-65.7493759-71.5360017,8.1595691,20.1834215,17.3216887,36.8355938,23.3437209,55.9446518l17.5881097,55.8104299,47.9644544,21.9128674ZM696.720927,1073.9795363c-6.131094-28.4647202-12.5065652-57.0531327-22.2834664-85.307506-13.4151164,7.7975491-21.4697564,22.2634131-34.9012269,26.2513666-38.6713258,11.4819482-76.7247623,17.4665454-116.2381431,24.4487573l12.4243613,30.4402035c55.3701845-8.9012593,105.5653043-5.6143028,160.9984751,4.1671786ZM637.1570706,1642.3802794c-8.0919372-37.4572679,3.7200498-75.2944568,26.7251791-106.4301358,25.0763335-33.9388949,60.5799139-53.0550167,105.5294989-52.1763895-7.7440055-9.3121988-19.6670115-12.9012395-31.3996143-11.8418362l-42.4579218,3.8337668c15.6643188-8.7575732,30.9561276-15.4189787,49.8476795-21.9712731-21.8052095-32.7347997-53.4776635-31.0050859-89.6219279-17.1078191,1.5570294-15.0518021,11.2333126-25.8191185,26.3635073-29.7716243-21.4297896-84.8263007-99.3954924-121.7996534-185.0143263-127.47595,23.8891411-15.4710445,51.820038-17.394931,79.6329724-11.9951729,40.4827319,10.0799108,76.3064886,32.4746698,103.1760032,65.3786314,27.1007505-18.9333411,46.4239767-44.0762831,59.231094-75.2204549,8.9667378,39.6163605-6.3721159,79.6524861-35.9757956,107.8809296l14.8358644,39.8706774,30.0974113,6.7983111c4.4802413,1.0119832,9.8758215,6.5557013,13.8077615,10.3552559,33.0018718-90.7225976,50.2626305-184.5561239,40.7162922-280.6830038-15.277747-12.0471245-30.2435711-21.3755643-48.352842-28.8657549l2.9205563,19.8728005,11.7008911,4.2441473c7.0276034,2.5490524,13.147368,7.0040741,14.7857635,12.5669362,5.1811602,17.5916499-8.8765267,20.4596896-11.9053572,25.8904825-3.0914898,5.5431432,12.0276585,22.7018461-2.2404381,33.1337022-7.7646619,5.6769896-16.8040817,5.1805895-24.1760539-2.2187974l-8.7390911-8.7715899c-7.1810295,7.6550716-16.1520051,8.448865-22.7375935,3.4093408-14.7595604-11.2945355-4.7657438-21.2720752-6.9774552-35.5672864-5.5794619-5.300015-12.8460297-11.6568891-15.9902624-18.0149635-3.037394-6.1420316-1.128681-15.8676407,3.2506658-20.1648405,3.6222787-3.5543326,10.8891374-4.4405801,17.9639377-4.871533l-4.3047031-22.346616c-52.8743011-13.2610493-105.9077217-14.1453573-159.1844846-8.0511003l6.1341996,24.8880507,14.2433085-3.884489c9.8916893-2.6976989,17.9983653.335845,22.8826817,8.2397914,4.6305616,7.4933129,2.606123,16.2279176-3.6710946,22.9588135l-12.7836254,13.7075466,10.1135534,16.706677c3.9299675,6.4919514,3.724554,17.1282267-.8498557,22.1711825-3.7134538,4.0938142-13.517301,8.3090136-19.0192626,6.0045329l-21.4312862-8.9764321-12.1334126,14.2903021c-5.3523624,6.3038222-12.0284884,11.4001525-20.621131,9.3604681-5.2776107-1.2527764-12.7862395-9.1795333-12.3821593-16.2391732l1.3692437-23.9219055-20.5829065-7.6968035c-6.3342935-2.3686554-10.1247481-10.8010204-10.5317273-16.7587559-.3724433-5.4521681,3.1476972-14.2598497,9.3588225-15.8852979l21.4046269-5.6015795-8.3244339-26.7199613c-56.7111103,13.8280083-108.4692191,40.7766578-147.6978288,83.1386816-21.7536411,23.4912293-39.9951129,47.0479168-51.0476039,77.6556075-9.7249175,26.931238-16.061767,62.8288412-1.3837072,89.0399539,24.1543665,31.8501255,60.8867945,50.7424551,94.7497146,71.2492462,43.8926617,65.6010078,102.5715096,128.1815025,180.3531095,155.1457443-1.0207363-22.2104312,2.4077273-42.7215658,16.5764934-57.9146472l8.8684982,62.6404298c2.1676654,15.3107651,8.5913454,29.8847162,17.5465885,42.7509596,5.5464841,7.9687858,16.7219281,12.9754394,24.3664881,16.7463638l2.9854951-2.7841466ZM538.0361706,1178.422268l32.0811667,12.7095246-16.8951881-29.7044535,17.8232572-31.247224-33.8891308,7.9829951-19.7131415-30.6920431-3.2996072,37.1138797-34.6109258,10.5812209,32.6476816,15.1288804-2.0336334,31.5170959c-.1419672,2.2001972,5.6533214,3.058598,7.0442465,1.4041856l20.8452749-24.7940615ZM732.7098058,1183.7593625l20.3173901,19.8330424-7.8868744-29.9880806,15.8757621-7.0986817-24.8165395-8.5277079-9.6056595-27.0937819-5.3771621,22.8805323-22.923827-5.3374579,18.6170789,20.0490637-3.4249165,25.7523669,19.224748-10.4692954ZM996.4106319,1682.0523618c9.9178832-46.8162677,26.9360754-79.9218592,61.2995986-110.3769527,25.1565108-22.295266,49.155546-42.9650239,71.3940069-69.8640451-5.7979928-2.5655562-12.857718-4.0385881-18.057015-3.5532625l-32.9850082,33.8248242-41.0215355,36.8421763c-18.0701035,19.293562-34.7279554,39.9614612-42.6550081,65.1776267l-14.7866589,47.0367552,16.8116203.912878ZM972.7639399,1651.9950376c8.8508016-41.1563779,27.7731957-72.5913757,56.7206836-98.4812562l49.752971-43.877356c-11.1405909-4.1021632-21.9021239-6.5362015-33.1827515-6.0218927-11.4574309,15.7544126-23.8452799,27.9858933-38.2682893,40.1983903l-29.2550347,24.7713229c-9.6846997,8.2003944-15.4797323,18.9945093-15.6175117,32.4362695-.1809811,17.6565247,2.6462736,35.9647215,9.8499326,50.9745222ZM883.2632455,1762.5903017c6.908485-25.8960189,21.2824148-49.609978,37.929367-72.264644-21.3798932-29.4557941-43.7457693-62.5959235-38.2433615-98.7151751l-69.3418099-69.3966389c-59.3301232-10.4185604-116.6456688,4.0311713-136.31739,63.5212368-9.5085231,28.755118-6.3745884,58.6859755,6.6953658,86.3949904,26.5469912,23.8279535,56.3468401,43.7790974,91.5320691,52.3021922l78.7701598,19.0808917c11.5618771,2.8006916,20.2488517,9.1031828,28.9755996,19.0771469ZM958.5369055,1678.1258891c-10.7353453-24.3284036-16.8076196-45.8865167-18.5545716-70.1054479,1.2737401-14.3594693,2.5822995-30.6159576,13.5996874-40.3223861l17.885537-15.7573362c-8.6013587-4.3313886-17.7834128-2.4462213-23.8959726,3.6565768l-32.2138872,32.1624422c-6.7601823,6.7493864-4.9525493,22.873083-2.936757,31.531424,4.8954056,21.0270125,16.0274286,37.0185282,28.7819112,53.5597741,4.3426783,5.632005,11.303566,10.3368712,17.3340528,5.2749531ZM237.483713,1656.5370358c1.8370443-33.9454391,10.8530201-65.8751407,32.3179549-90.0309181-38.1039878.9098223-42.4083485,53.0590668-40.742491,91.6098949l8.4245361-1.5789768ZM538.5269614,1772.7324284c27.0942766,17.7497795,66.128967,6.1633014,79.6765889-22.0901813,6.5079112-13.5722091,5.9497892-30.0407628,14.9351174-41.4271542l16.9956567-21.5372433-49.0687383-22.7790898c-10.1851605-11.7342656-16.8827021-24.7789717-22.2698534-40.5639185-33.3865889-13.364521-64.5069744-30.3503644-94.3508664-51.2665559-4.201981,45.3748067-.1119957,88.0004981,13.4836801,129.921996-22.5137804-12.0748599-31.3165306-32.5242797-39.9360724-54.4126998-6.9056338,7.8297729-10.1420924,17.2558095-10.2413222,27.3378812-.4092502,41.5811482,22.4371234,70.5929735,60.4938725,88.0529426,2.7723335-12.3832087,7.0755287-21.3946135,15.1347963-28.5768282,2.0254052,13.6602129,2.4893737,29.0485988,15.147141,37.3408511ZM438.195814,1748.138385c-29.8531001-38.8551527-24.8077131-101.2106493,8.3274068-135.992131l-2.5025287-15.6453419c-30.3403751-2.2906934-58.3754624-.3253177-88.0437044,2.6748253-20.5605991,2.0791504-38.024513-9.9013026-54.6814783-21.7910096-27.2733471,13.2489969-39.0309563,52.3386753-40.821484,84.1029853l22.939416,30.9565151c13.6755648,15.4342507,30.7224227,26.9350096,50.1985251,32.1612071l.6153368-18.295463c27.7661693,26.8002625,63.9603139,42.3434908,103.9685106,41.8284126ZM182.5567687,1654.7396995l22.5538399-1.7024499c-.9952758-17.8726649.6629178-33.2143464,4.2027919-51.428891-18.9466897,9.8792689-24.492235,31.7672306-26.7566318,53.1313409ZM637.4185001,1643.9469053l-.8598844,1.7123084c-.4425908.8810486.5854308-1.1642231.8598844-1.7123084ZM304.624917,1743.2734222c-26.1845361-14.9089421-46.0634141-36.1566571-62.0865106-61.9360787l-11.2516417-.0717797c6.4079938,53.2530431,51.048124,136.7051527,100.0440357,115.7377872,10.1057089-4.3246484,19.6135664-15.7172447,22.9034507-28.6497144l2.2180246-8.7190103c1.9087205-7.5031424-24.5958835-.8561562-51.8273586-16.3612041ZM250.7963065,1889.4023856c-27.3319207-29.1148439-45.3237526-82.3040046-49.3944397-119.2475093-2.2566535-20.4802505,6.8785911-38.4665888,13.943868-56.8734821-.7703101-9.4466254-3.2992023-19.7200489-6.9355303-28.9683337-22.8388929,50.674289-27.1923046,101.9735504-3.107247,150.3710469l27.3057227,54.8692325,18.1876262-.1509543ZM941.8976858,1805.7425818c-5.466957-35.6988618,21.3842438-61.9467881,23.7893791-96.6207515l-22.1190215-2.1421944c-10.8345692,14.4937562-20.9529315,28.2558134-27.8742838,44.6382635-9.434444,22.330796-8.5511746,49.8840461,8.3891276,51.9510135l17.8147986,2.1736689ZM984.2274107,1802.5615509c-14.0232239-27.2441218,10.7003731-57.9168873,28.6637478-87.4763745l-30.5160154-6.9315727c1.827292,34.195263-18.1056527,58.6811828-18.6531331,92.3277593l19.0375686,4.2980292,1.4678322-2.2178413ZM296.7943856,1866.3332931l19.2413346-40.1206542c-47.8549632-3.6905009-72.7226986-39.050657-92.300077-81.6234341-3.8831678,10.6578371-2.8567653,21.4272789-.1101369,31.868742,6.8449267,26.0213751,14.9506937,50.5744152,27.6380957,74.2399174,7.7570117,17.4138719,29.0306324,25.748921,45.5307836,15.6354289ZM984.4300047,1805.6999121l1.5207223-1.9753678-1.5207223,1.9753678Z"/>
        <path class="st1" d="M482.9023531,1083.4083238c-88.8712477,24.2915579-171.2775587,69.1938292-211.0810365,152.4038153-11.9189992,24.9169121-14.9939165,49.4436832-17.3520561,78.6246676-67.9394404-106.4170238-94.896038-244.0912109-7.1540921-340.8954488,93.6483434-103.3206685,231.9279713-128.5086395,363.8211012-80.5822578.1659539-9.9545604-7.0836973-17.9127389-15.86301-22.2455584l-27.7080567-13.6746479c32.8719375-27.3569862,72.19027-43.9954636,113.7994207-54.949469l60.9280398,39.9781666c-17.4530781,37.5895614-39.6416956,69.1528824-67.1560163,99.1118182-16.2071449,17.6471307-34.4188389,31.6448109-53.2398944,47.0203909-109.5047665,28.5095069-224.4876917,45.972453-338.3098205,33.8337382,3.8939999,4.6687201,9.2628386,9.1958275,15.0235279,11.3984558,58.5485726,22.3863393,110.6600735,20.1724091,172.3043429,17.2528937l11.9875502,32.7234355Z"/>
        <path class="st1" d="M1018.8191074,1022.3057754c-62.8163576,38.2577939-132.2115339,58.2177065-204.513881,69.6644656-9.0785424-26.5970528-18.3547521-51.6200713-34.0093388-74.1733228l-13.9626735-20.1157458-26.0984745-28.0462998c46.4213284-4.5562792,88.347803-7.7352596,132.4627595-20.8287202,27.7580057,50.8066711,87.8131906,64.9862861,142.9217352,52.8743228l3.1998732,20.6253002Z"/>
        <path class="st1" d="M696.720927,1073.9795363c-55.4331708-9.7814814-105.6282906-13.0684379-160.9984751-4.1671786l-12.4243613-30.4402035c39.5133808-6.9822119,77.5668173-12.9668091,116.2381431-24.4487573,13.4314704-3.9879535,21.4861105-18.4538174,34.9012269-26.2513666,9.7769012,28.2543733,16.1523724,56.8427858,22.2834664,85.307506Z"/>
        <path class="st1" d="M790.6766112,1110.5041136l-47.9644544-21.9128674-17.5881097-55.8104299c-6.0220323-19.109058-15.1841518-35.7612303-23.3437209-55.9446518,27.4837525,19.6301047,48.8889764,43.916571,65.7493759,71.5360017,10.2877085,19.4121717,21.2739263,36.9871301,23.1469092,62.1319474Z"/>
        <g>
          <path class="st3" d="M520.0572303,667.9776825c7.2251359-30.6778842-1.7182785-54.9706897-31.5379057-64.4829289-63.6152891-20.2928039-151.7549924,7.725818-207.1965681,43.8588032-41.9389033,27.332877-71.6505428,67.6267905-90.6695068,113.3666871-3.0610952,25.9790905,6.9895531,49.740511,26.0076113,66.5641046,12.9433902,10.6011588,27.7358447,15.8693907,44.9190224,13.3236517,5.6843589,11.6833627,10.2119504,22.696975,14.1563108,36.1748271-46.0980762,10.4425537-90.7594763,14.906075-136.7799606,10.5959334-32.8659988-3.0781316-57.5908887-22.8627238-69.1225516-53.5607896-9.2317256-24.5754773-11.3183221-50.0380962-13.1676485-76.6627389-4.2786244-61.5991013,7.3302122-122.3048966,38.7641318-175.4970063,12.9640961-21.9376912,28.9741901-40.3693546,49.4722237-54.6508666,11.7032324-8.1539457,25.0690395-9.8994041,36.6440084-.1970074,21.7113359,18.1989253,30.5845208,51.1166281,38.4175946,79.0982522,4.6714298,16.6874711,20.032359,24.1022769,36.0517349,18.0718835,17.4763042-6.5788448,33.7575319-14.6813319,50.6518573-23.4471392,35.8520109-18.6022117,71.037659-35.5486584,109.5212883-48.2320746,48.8758573-16.1084817,115.3893812-24.514188,159.573285-.4289172,21.4942576,11.7168237,31.2509691,32.0337804,30.5502737,56.3672303-1.1854252,41.1669366-16.4513059,79.5018193-42.7133336,113.1782819-5.7415811-12.6755941-13.2932609-22.1123546-24.8605661-28.3094946-2.8080576-10.7906483-9.6156038-18.5997675-18.6813014-25.1306917ZM148.1578676,682.4309274c11.2250539,3.5709551,18.8765083,2.840451,25.8479453-3.4036618,4.6758374-4.1880112,8.1803761-14.7191663,4.8304421-22.004309l-8.5774149-18.6534099,12.7969838-21.5806578c2.3170957-3.9075184,5.206344-8.8732794,4.4374895-13.0476161-.6153812-3.3410849-4.6627891-8.9704043-7.8639816-11.1896166-9.667252-6.7017788-20.5867925-2.3082618-29.6893874,5.0527446-2.6228534-5.5911329-4.9318739-11.7613267-8.0398228-15.7832498-4.5406607-5.8759613-15.4146663-3.8726543-21.1856866-.4553705-4.9023942,2.9029308-9.793889,9.7988445-10.4082317,16.5615119l-2.3459095,25.8237063-19.5752967,18.2374144c-5.4421401,5.0701947-6.3743311,15.4423764-2.8867509,21.1191835,3.3860683,5.511574,10.1824881,7.8511337,20.1159757,8.6448466l-1.6154431,22.5360694c-.4600929,6.4184786,3.9364618,14.1856944,8.6991222,16.2926813,4.4018503,1.9473656,16.9141509,2.111341,19.5662231-2.2161024l15.8937434-25.9341642Z"/>
          <path class="st3" d="M599.4527701,536.3348043c-44.7793989-23.6078131-103.0283587-18.8921648-153.2047414-8.5948853l-27.6813887-34.2695053c-7.052287-8.7307176-19.2166453-15.8844216-30.0773382-12.9702441-12.4922549,3.3519636-23.7079394,2.5908018-34.7461239-4.5305907-16.7522901-10.8079035-25.8719523-3.9190752-41.0076524,9.3327417-9.9948832-16.7785484-28.0022966-21.7884756-43.3783172-10.3723536l-111.4692786-48.7318753c-35.6689782-15.5936794-50.3455468-55.0259153-38.1899707-90.3324734,11.8016139-34.2784551,44.1888355-53.8844665,80.0846362-47.3757833,15.9128902,2.8853503,29.9224367,9.1733677,44.6924169,17.5018641l466.6665353,263.143927c-8.0415936,11.4695737-13.2330901,23.9059509-10.7625683,36.8886406l6.226115,32.7184803-63.0053349-22.3291126-6.7771056-2.4116104c-1.5837166-.5635603-1.5265118-6.1601699-1.600559-7.8325479,3.4699252-29.4121404-10.3632554-55.3917996-35.7693246-69.8346718Z"/>
          <path class="st3" d="M753.0700175,884.548992l11.8307226-27.051031,8.9957712,9.14317c1.0605484-8.9447112,1.3880624-17.5926022-1.6622524-24.8721107-17.4001024-41.5249585-58.2776623-61.4278867-101.289088-70.611173-11.99484-2.5609951-23.2103319-.0720538-34.1896204,6.576792l15.308403,6.7573694-23.829516,8.6921016-6.1774597-21.1987254,120.7424818-73.9763046c8.2300169,7.3514999,15.605736,9.9253722,24.2077836,8.6667627-20.9437398-36.3313983-52.3720365-93.2478746-32.0736047-125.7760324,7.4567324-11.9493845,21.4551352-16.3346885,34.909568-16.8910494,24.6886872-1.0209142,67.5427281-2.5700157,75.6365514,10.3726026,4.3325371,6.9280453,1.2550076,16.684857-1.3994878,23.2384896-8.2097743,20.268953-33.0209549-5.9820885-65.5300331,3.0174397l41.1555693,24.9312033c-15.6628466,23.1420284-24.8094877,41.4187772-12.6779886,65.1758929,5.9672181,11.6856037,13.7950823,20.5409541,25.0330453,27.4895226-.7929873,11.2865382-2.4618534,24.2336048-.526099,34.5904929,1.3272301,7.1010938,2.4664953,10.2282734-.3104713,16.5069674-16.8303669,38.053294-31.0405578,75.024412-45.4089746,114.6714944l-32.7453006.5461254ZM779.5471321,830.3723278l4.6863002-15.8678132,14.8967441-2.4957759-12.7577691-12.2590487,3.5592187-21.1965034-14.4369607,12.3620095-8.4063188-6.1720089-4.3538881-2.7053139c-4.021081-2.4985223,5.0979677,16.1239139-.791638,31.8801412l13.176564.9231218,4.4277478,15.5311914Z"/>
          <path class="st3" d="M1062.827227,918.2264225c.3983464,23.7128108-22.286707,44.0293809-43.3570697,50.8119769-44.4151281,14.2973272-101.3874532,9.4887213-121.7230444-35.8367604l14.4379933-125.6054611,24.1969082-6.6494921c-26.4658728-12.7530942-75.6023751-26.5055482-80.1113793-46.826945-1.6673236-7.5143741.1546253-22.4741641,8.8101776-24.4877833,18.1132997-4.2138603,35.7256191-4.1617058,55.1378638-5.6246417l6.5284768,18.6425701-23.8979832,10.7803672,64.0000721,31.9227693c2.0367327,10.1780075,4.9300514,21.0612788,9.6717205,29.7044733l47.7720847,19.291486c12.7431447,26.9099218,28.6530094,53.5043451,38.5341795,83.8774407ZM1020.4964423,932.1419253l16.3159332,6.6229256-5.5674038-19.7385244,12.0934001-18.0382408-21.1257509,7.3776409-9.4607679-19.0321373-3.2828531,23.8076867-17.5326142,6.9659998,15.4241614,8.092467-1.0551355,21.335978,14.1910305-17.3937954Z"/>
          <path class="st3" d="M444.5425161,811.7386874c16.8515862-2.932491,32.5132067-6.4390684,48.8909697-12.1953936l4.2925232-42.4954178c16.1096872,1.6173223,28.0245731,12.6629692,31.1188583,28.2293545,2.3180796,11.661537,1.0485072,23.6696942-2.2875355,35.623692-41.6321631,22.7343056-88.977277,23.837669-132.962625,7.6771509l6.9231918,20.0118518-53.9309183,16.9136754c-42.6822255-34.5161284-60.4864113-111.2238556-32.1178748-158.5573126,5.0439282-8.4158926,11.8428761-8.3552656,19.673418-4.9972792,19.1818758,8.2258007,40.6918724,2.5522952,57.9301247-7.4919452,15.9119439-9.2714381,24.2133927-23.1639153,25.678234-41.4926324.6514781-8.151571,18.8528453-9.3637551,20.6766721-2.1785092,2.7947086,11.010184,4.8150617,19.5639392,16.3119729,25.1222591,11.820955,5.7149827,25.3364677,6.7829314,39.571543,3.5115304,9.6878636,3.9755842,17.8462833,12.0162796,22.8548739,21.7212542,17.1894172,10.1056651,21.7916598,29.8927714,13.6236198,47.2990804-18.7428032-18.2846063-41.3674065-26.8775096-66.835528-24.037803l-19.1789664-12.6123274-4.262217,16.9453351c-32.5214536,7.7881195-59.0189832,24.5334643-80.4379204,50.8743956-8.1995861-11.0858948-8.7055431-22.7815852-8.5611298-36.2429363-17.1379807,24.2973758-8.5454843,57.0092409,17.671176,69.4051301l20.487799-24.0179002,54.8697389,22.9847474ZM453.1442521,695.3509937l-6.3022104-16.0807295c-6.6767522-3.8038407-16.4164174-.9909814-20.6330309,4.6806913l-15.2341332,20.4910927,42.1693745-9.0910545Z"/>
          <path class="st3" d="M492.0382727,623.5255998l-6.7801774,2.7700337-3.4599388,33.2431379c-.1933386,1.8576002-2.8353324,6.3339652-3.7695981,7.0589179l-12.1377422-2.2545144,5.1240609-39.6895077c-5.8366977.588713-11.440673,3.4639456-14.3547258,8.2174391l-9.9525966,7.2439156c-9.2876617-3.6950376-20.728399-6.0301633-30.6554716.4759469-2.9658004,1.9437577-5.9539682,9.0755512-6.6712547,12.0976798-.8766477-4.3617201-2.9649128-13.1565806-9.9054141-14.8378498l-7.3917424,35.3349071c-.1700615.8129488,1.2402535,6.2733076,1.8706954,5.15004l-8.0217873,5.8199503,5.8262695-42.5788635c.4890702-3.0417086.1852016-8.5704592-1.8066042-9.9295135-1.9918081-1.3590559-7.834748-1.1278855-9.5682213.860968l-9.7088142,56.9896454c-6.0389665,1.0928099-12.5906599.2597366-19.1199304-1.0423623l9.1933934-50.7032208c-12.198717,1.3755768-20.5618706,8.2074713-22.4381348,18.395913-8.0628256,4.5233834-13.4542842,13.3189683-14.9265575,23.7470202-10.9130859,5.9849918-19.9896901,14.0527941-26.1693841,25.4249673-24.9893089,54.6595144-8.503427,111.8117482,26.2957037,161.0518301-23.1049498-12.3362447-34.7246121-34.3042592-46.6398056-57.1216061-10.9124418,9.2172599-25.7518514,10.6018935-39.2290068,2.8654723-17.3615857-9.966238-27.3012692-30.9892369-22.4937069-50.8237622,1.8168733-7.495861,8.7291749-14.7794427,16.6898823-13.2636339,11.5123695,2.1920854,19.8005519,10.2049084,27.8021962,18.4368368-4.7721136-54.941748,23.9543587-103.7247582,72.6699103-128.5144268,39.158712-19.9265216,83.3289436-28.5052473,127.5505828-26.1549197,12.3426283.655996,24.5191966,5.0530888,32.1779204,11.7295591Z"/>
          <path class="st3" d="M378.2886355,499.8482313c24.9909041-1.6482669,26.2940069,8.5845968,42.6911746,32.7953419-54.166038,13.6785493-97.0682736,41.8595242-148.5064673,61.9445041-7.170393,2.7998106-19.8389044,3.1603428-24.9146188-1.8675943-5.1748994-16.0200611-9.7957893-30.311428-16.8414796-45.121175,5.1566509-23.3950809,36.2320501-61.842311,52.3007493-61.937385,17.1063633-.1012136,23.7059775,38.2472703,59.8630752,44.616057l-16.5496985-31.7477967c.9391848-7.3456157,13.4883249-10.3839502,20.4250868-5.4251732,9.2083652,6.5826434,19.7059343,7.5232173,31.5321783,6.7432213Z"/>
          <path class="st3" d="M946.4084039,734.6058304c-10.8446028-19.9610874-7.0314118-39.6373515-24.0339892-50.848241-14.8017569-9.7597474-30.39908-14.7002382-49.0323273-16.1087708,5.6543364,11.8424185,12.4895868,19.0387275,23.4261495,28.2664086-10.7290135,4.2430682-24.1285919,8.6616729-36.559599,8.0279523-18.0108305-.9181745-34.9287572-33.9307568-28.0708769-49.6962832,8.4271374-19.3730793,22.9127703-33.9275967,39.2904674-47.0217543,9.9990204-7.9943321,22.5203117.4311512,31.2042098,14.2042619l-17.0891991,11.9634792c28.3601497,10.2749705,81.0769527,11.2133158,94.1011328,20.9016868,13.5512657,10.0804572,15.9697447,28.1300735,20.6483362,43.7258706l-21.7678202-7.9744967c-5.9025969-7.6805869-10.7352658-13.1317919-18.6727061-18.5800062-.0712404,23.1351209-.5828915,42.6504808-13.4437779,63.1398929Z"/>
          <path class="st3" d="M987.4936075,772.0923916l-26.2801245-14.6437729c9.3160605-11.8921508,16.2349828-22.3773157,19.233356-37.7105112l10.9607439,5.0401011,5.365163,23.8323981c8.8839084-16.2291757,17.8022692-29.124116,33.0962419-40.1604864l23.3367555,10.5943833c-20.5877285,26.6407545-33.2382395,53.9058627-36.3342929,86.01253l-24.3279446-5.8970355c-4.8214123-7.3717426-6.3934319-16.1026816-5.0498984-27.0676064Z"/>
          <path class="st3" d="M500.9803468,633.4483317l-4.9514262,27.3922477-7.866576,3.8819198,3.2798707-18.8605867,3.1286027-20.1285736c2.4258881,1.7548396,4.6778176,4.5244418,6.4095288,7.7149929Z"/>
          <path class="st3" d="M406.4716811,662.691096l-.5344429-3.9352143c.0181363-1.1532654,1.9861245-2.7152956,3.1731193-1.8403339l-2.6386764,5.7755482Z"/>
          <path class="st2" d="M148.1578676,682.4309274l-15.8937434,25.9341642c-2.6520722,4.3274434-15.1643728,4.163468-19.5662231,2.2161024-4.7626604-2.1069869-9.1592152-9.8742028-8.6991222-16.2926813l1.6154431-22.5360694c-9.9334876-.7937129-16.7299075-3.1332726-20.1159757-8.6448466-3.4875802-5.6768071-2.5553893-16.0489888,2.8867509-21.1191835l19.5752967-18.2374144,2.3459095-25.8237063c.6143427-6.7626675,5.5058375-13.6585811,10.4082317-16.5615119,5.7710203-3.4172839,16.6450259-5.4205909,21.1856866.4553705,3.1079489,4.0219231,5.4169694,10.1921169,8.0398228,15.7832498,9.1025949-7.3610064,20.0221355-11.7545234,29.6893874-5.0527446,3.2011925,2.2192122,7.2486004,7.8485317,7.8639816,11.1896166.7688545,4.1743367-2.1203938,9.1400978-4.4374895,13.0476161l-12.7969838,21.5806578,8.5774149,18.6534099c3.349934,7.2851428-.1546047,17.8162978-4.8304421,22.004309-6.971437,6.2441129-14.6228914,6.9746169-25.8479453,3.4036618ZM141.6693842,661.8715185l25.4987896,6.9826999-13.359011-28.0908367,21.3993902-40.0608341-27.9405122,17.4600881c-4.5083953-9.2385792-7.8049271-16.9822308-15.582185-27.2090309l-3.3415405,40.7632195-26.6116822,18.0271593,22.5850933,7.3094458-1.4452715,37.9433905,18.7969293-33.1253014Z"/>
          <path class="st2" d="M779.5471321,830.3723278l-4.4277478-15.5311914-13.176564-.9231218c5.8896058-15.7562272-3.2294429-34.3786634.791638-31.8801412l4.3538881,2.7053139,8.4063188,6.1720089,14.4369607-12.3620095-3.5592187,21.1965034,12.7577691,12.2590487-14.8967441,2.4957759-4.6863002,15.8678132Z"/>
          <polygon class="st2" points="1020.4964423 932.1419253 1006.3054118 949.5357207 1007.3605472 928.1997428 991.9363858 920.1072758 1009.4689999 913.141276 1012.751853 889.3335894 1022.2126209 908.3657266 1043.3383718 900.9880858 1031.2449717 919.0263266 1036.8123755 938.764851 1020.4964423 932.1419253"/>
          <path class="st2" d="M453.1442521,695.3509937l-42.1693745,9.0910545,15.2341332-20.4910927c4.2166135-5.6716728,13.9562787-8.484532,20.6330309-4.6806913l6.3022104,16.0807295Z"/>
          <path class="st3" d="M141.6693842,661.8715185l-18.7969293,33.1253014,1.4452715-37.9433905-22.5850933-7.3094458,26.6116822-18.0271593,3.3415405-40.7632195c7.7772579,10.2268001,11.0737897,17.9704517,15.582185,27.2090309l27.9405122-17.4600881-21.3993902,40.0608341,13.359011,28.0908367-25.4987896-6.9826999Z"/>
        </g>
      </g>
    </g>
    <g>
      <path class="st0" d="M3784.3588932,921.2577328l-11.7687688-33.5304584-.9069528,34.3032469-8.1438731.2565523.0785035-46.2602459,16.4635332-.1657435,10.527966,29.2421656,6.291147-30.3014218,16.5844076.0582356-.1114425,47.7884299c-3.1676567-.0434915-7.8957621-1.4821107-7.9431562-3.2112714l-.8680921-31.6720588-11.2141251,33.0184219c-.4507856,1.3272752-8.3900086,2.1811552-8.9891468.4741476Z"/>
      <path class="st3" d="M2870.1878529,944.032574c-1.4889618,1.8473697-4.4625997,5.286771-6.6669673,6.4083359l14.2220083-32.8656089c8.4753814-18.4380113,5.8464492-29.2735281,41.7575811-34.7253871l-49.3126221,61.1826602Z"/>
      <polygon class="st0" points="3742.0077055 921.8739044 3731.6025422 922.2239189 3731.4809196 884.1399436 3717.6476346 883.9937288 3717.8741295 874.8360781 3756.1048604 874.5869858 3756.2183537 883.8657219 3741.9506251 884.2282301 3742.0077055 921.8739044"/>
      <g>
        <path class="st1" d="M1767.8827578,951.1308746c-9.1458576-3.1456868-12.4951487-13.2328208-12.5218074-20.1897471-.0331434-8.6491725,3.4966719-17.430292,9.5248443-22.3858111,2.2980535,7.1255936,4.0275382,12.2481368,7.4849907,13.9915849,18.9329211,9.5470771,46.0264883-41.490183,43.6735173-74.6550945,5.47279-5.3827764,13.8471349-9.8004408,21.7586236-10.5575978,9.4449589,10.2777946,23.3953252,11.6847389,36.8986838,10.3273768,4.5833776,1.1032276,9.2645375,13.0112683,6.5201568,17.1731546-11.0259885,16.7210438-29.3283786,45.1510917-22.3587541,55.1612421,3.7531002,5.3904048,28.0776886-19.096766,32.9945907-31.3247815l9.7425589-41.7233883,28.6138153-2.4802284-12.0646085,69.2441153c1.8235341,1.175328,4.9874844,2.7753961,6.5420888,2.4994484,1.5545932-.2759457,4.5078846-2.7123102,5.356872-4.0865054l30.5403536-49.4334868c14.1711193-22.9377777,48.0577828-41.3097528,57.1797689-33.937155,5.8353626,4.7162735-5.0498264,16.1269831,3.7567182,30.3258556l30.2863095-7.661249c9.2650977-15.83276,27.1322828-25.8503623,45.1478245-22.7434259,11.9343608,2.058184,18.9469928,10.5246416,16.5968298,21.7734983-2.0493162,9.8088786-15.0060383,16.601162-23.5988639,11.7739924,3.5312094-4.8820555,4.7866174-10.65167,2.8645958-14.2128387-1.5127384-2.8028388-9.0053188-2.161253-12.3867656.8580175-11.8241827,10.5577311-18.0994216,30.0422873-9.9776004,45.0421202,4.696221,8.6732433,20.0519275,10.8057067,28.6957479,7.1549397,8.8945495-3.7566639,17.2677363-11.6678248,22.3866221-18.995865-1.2615691-20.9798799,5.8570909-39.8319285,22.3892301-52.2717911,14.727803-11.0821621,35.9020144-13.0993619,50.3557083.2203797,5.5025603,5.0708616,7.6911937,16.1608996,9.8990456,23.0338458,4.5117356-.4466194,13.0830868.1545251,15.1160093,3.3203348,3.5897914,5.5902751.3857422,13.4796026-3.9126872,17.5956063-6.3872482-3.6536537-17.7194331-4.8125364-22.8657461-.2484306-3.2140414,29.6050971-26.0408132,50.4894704-49.6104493,44.9256864-9.6973687-2.2891344-19.4842536-8.5733206-24.7146756-19.2608056-9.7059117,8.5271665-18.4968363,15.689513-29.6339933,21.4158478-16.73828,8.6062354-40.0746928,6.1608675-51.7530541-9.3664899-9.0277874-12.0031979-7.5336878-26.8273917-4.9180229-41.9090487l-15.8356956,3.0829525c8.0495898,26.5274204-5.0636128,53.4088411-32.2947294,59.0771623-8.4822542,1.7656324-16.4909195-.2390737-21.9944626-6.3060905-13.1310709-14.47548.979524-39.9861394,20.6080074-53.3754123l-4.3440499-13.2885437c-8.3509491,8.365854-12.8557651,15.9267813-17.9173302,25.3795497l-19.5005474,36.4184107c-5.7063391,10.6569214-16.4360187,18.4614755-28.2783097,20.1663811-13.8445438,1.993165-24.2179526-6.9508857-24.6643119-21.5588025-14.3945091,14.4630131-26.8354503,29.5394904-46.5206054,23.4520726-19.2213103-5.9439789-10.1206248-45.155357,2.5697099-68.3405007l-10.3046905-5.2487823-31.6039785,66.663101c-5.6789251,11.9787056-19.9558443,20.2906942-33.9274838,15.485196ZM2187.4807402,861.3192212c2.6930099-6.8174515,1.1104527-14.8411917-1.5364235-18.5664197-2.9886437-4.2062333-10.6154087-6.6976938-15.6098887-4.9107366-10.3770437,3.7127653-11.5047549,15.9088427-6.3223415,23.2803657,5.0366188,7.1641431,19.3198924,10.6995291,23.4686537.1967906ZM2180.0009208,880.7194775c-13.5084056,5.0605455-24.6671994-.3832698-29.7111082-13.1010974l.8290062,15.5880381c.4268006,8.0252524,8.4085362,13.6986849,15.8408637,13.1168933,6.1153524-.4787007,11.8390183-6.9192037,13.0412382-15.603834ZM1985.7250804,909.0443114c5.9769874.9310727,12.7482988-2.9744388,15.3907816-7.2411702,2.7385414-4.4218341,1.7645319-10.8770374-1.0870987-17.3720027-8.3242688,4.1046968-16.5435376,13.4813765-14.3036829,24.6131729Z"/>
        <path class="st1" d="M1755.688551,881.8701296l-15.832905,79.7311333c-5.1461683,25.9150062-18.7912642,47.0179255-42.558005,42.1527999-13.2299455-2.7082109-26.0534303-14.9248322-23.7529207-30.230814,5.8904736,2.4375703,12.0313754,4.9056312,16.9922377,4.5170922,4.2553193-.3332803,10.8354706-6.797238,11.7519822-11.6561535l10.2098666-54.1279331c-12.7142882,2.8117306-24.7044905,2.3409856-34.8991058-1.2252696l4.8507448-29.5803142c9.8237969,7.8108905,23.0870163,9.5588157,34.1341147,3.2012325l3.8917644-21.4275309c-16.6862587,5.2245273-30.5090591,1.4991331-41.179243-10.7614312-12.0679596-13.866677-14.9818505-32.3616138-9.4471224-50.9367606,6.0001093-20.1370165,22.7017987-37.7424887,43.2607197-44.3237085,22.5758617-7.2268728,45.8940068-6.076067,68.6607088-.937546l56.188487,12.6819301c6.7991627,1.5345938,15.1331321-1.6278928,19.0043189-6.5334668,4.2834118-5.4279461,5.3978315-12.7220239,2.7972046-20.662986,13.9013594,1.1859072,23.4763945,11.8274439,25.7774585,23.9647039,2.4017691,12.668442-4.7894504,25.191213-17.5010791,30.4932385-12.6918017,5.2937556-26.7696444,5.274809-40.029478,1.7836874l-68.1656869-17.9470353c-22.2852897-5.8673931-51.654755-3.0145644-59.8499271,15.297728-4.5480933,10.1628146-5.1809098,20.6678395.5552323,30.1564742,1.721851,2.8482584,7.2522463,6.0252983,10.145361,5.8125253,2.892964-.2127619,8.7382366-4.4009738,9.4360209-7.2174651,1.7580663-7.0961447.1283768-13.2231242-2.4672773-19.935199,10.5870594-1.7018766,16.0014917,4.1603907,21.6825411,14.9386668l5.8417907-22.9807762,28.9435146-2.5527088-5.0855692,13.1370646-9.9675964,48.3479184c17.59508-6.514861,34.1205028-12.9754981,49.8547546-6.6354922-4.1322106,11.9088862-5.8764904,20.6265898-7.815579,32.7470286-12.2815671-9.8085037-34.6299028-12.2835178-45.427328.7093673Z"/>
        <polygon class="st3" points="1924.7458121 809.7464302 1905.4515598 832.0616225 1913.7391008 811.6921123 1924.7458121 809.7464302"/>
        <path class="st3" d="M1937.6676172,782.4804624l-5.8033273,17.1964878,6.362499-4.5613089c1.1295363-.8097705.3437934-3.8592192-.0137127-5.2977202l26.9136446.2856452-8.5271886,6.2908727-28.1935583,9.1113529,12.4736818,28.9344154-15.5498116-12.9073465c2.8276407-2.069845,2.4160801-11.9185059-.584032-11.7864306l.1002895-4.3823663-27.1552792-6.657286.7487637-2.3942689,23.6776496-1.3839916,5.7190634-8.8767793,8.6723141-16.3467561,1.1590039,12.7754805Z"/>
        <polygon class="st1" points="1956.5995321 796.394439 1940.4785761 808.7846683 1944.4893222 832.7976382 1940.8796557 834.4402073 1928.4059738 805.505792 1956.5995321 796.394439"/>
        <polygon class="st1" points="1924.7458121 809.7464302 1913.7391008 811.6921123 1897.6908224 798.7067778 1924.8461015 805.3640639 1924.7458121 809.7464302"/>
        <path class="st1" d="M1925.3298441,821.5328608l-20.402834,14.9349615c-.0533744-.1361821.1000165-3.362762.5245497-4.4061998l19.2942523-22.3151923c3.0001121-.1320753,3.4116727,9.7165856.584032,11.7864306Z"/>
        <path class="st1" d="M1938.2130761,789.8179211c.3575061,1.438501,1.143249,4.4879498.0137127,5.2977202l-6.362499,4.5613089,5.8033273-17.1964878.545459,7.3374587Z"/>
      </g>
      <g>
        <path class="st0" d="M3489.2521129,1061.4797399c.0054279.4778268-1.1905406,2.267674-1.1426895,3.0086009l1.0386726,16.0828238c6.149853,3.8886671,14.8278105.9255574,18.5555192-4.9675138l27.0961081-42.8357757,35.7023522-62.1499335c13.322811-23.1920802,29.0495477-43.2221763,48.7366883-61.3783584,21.3498204-19.6895646,47.4912643-31.6553811,76.8363008-34.6477317l9.1860787,19.8343257c-15.3618844,10.6873636-18.040074,27.2757394-11.0666872,43.3047776l6.9479839,15.9706471c39.7735728-11.2632961,75.4885491,14.9633209,81.2275872,57.5410309-14.2465926-12.9930866-30.8612638-21.1213463-49.4567934-17.9334626,5.0651043,25.8320325,7.6542315,52.120984-4.3206788,75.6149648-15.486816,30.3841072-48.4374028,50.3194538-82.1897089,52.9460649-23.8080963,1.8527507-45.5192998-11.7323837-52.7732542-33.3549326-12.5902916-37.5290748,30.661313-83.1831794,60.6210297-107.7739486l-6.8240344-37.8423921c-16.2617068,18.707024-31.8097991,37.3042281-43.4196265,58.9586742l-32.1276943,59.9240108c-9.1735934,17.1104253-19.5372458,33.4172698-32.0171554,47.6528555-14.5298996,16.5739686-32.5634136,22.7734401-53.9213209,22.6427052-20.2293232-.1238266-37.11195-10.116063-40.9114166-31.6097397-6.9220972-39.1584753,12.8773876-86.814841,31.2379118-124.2112574l-24.8260162-12.2951904c-22.8557718,76.9966531-65.3485664,165.2912104-147.5487431,182.0982029-29.4425783,6.0199529-67.9724174-3.1370111-87.4231558-27.1571947l-18.5241418,17.0491716c-28.7519759,26.4626224-70.2815263,31.784413-92.3894653-1.207934-11.6319343,17.3367216-28.1057475,26.0562783-47.6118677,29.1272449-24.635825,3.8785671-46.2933702-5.0837314-60.966569-25.1365164l-7.0480185-9.6320101c-12.2967916,12.5671348-23.6191995,23.2114615-37.6512159,33.4828618-22.0690361,16.1544782-61.7450371,16.9624762-78.2355633-8.7168345-7.6423647-11.9008123-11.7502713-27.3733676-9.3005862-41.9564659l24.3039824-144.6828264,63.4403396-4.3105681-26.1030064,150.8602497c.9367436,4.9725517,3.5436036,11.0717837,6.6789906,12.0783064,2.7447657.8811253,9.8014999-.4405608,12.1360851-2.7184048l27.7199103-27.0461892c-8.3085873-42.1747633,2.3071561-82.1319965,28.1706446-114.855387,20.8136846-26.3342019,50.5390205-42.2231201,85.0139483-37.1137114,11.7389178,1.739784,21.5065006,9.6625365,29.6987806,18.6157624l27.1084642-170.9946623,65.7108569-4.0828099-56.5498118,311.3473268c1.5015037,4.3673616,3.0883752,8.865424,4.9229163,10.6825216,6.0396724,5.982245,25.2407596-7.1100759,35.4781744-19.9350249-12.0790887-46.7895201,4.743081-93.8376673,39.4930456-125.7299437,20.6461887-18.9483345,43.7577032-32.9823544,71.7432156-36.3377378,26.9447218-3.2305956,48.9014452,10.5506252,56.0335357,37.3476466,12.7174873,47.7827336-22.571854,94.5579306-72.6263934,98.101954-22.4426972,1.5890156,19.3405559-18.2727003,28.6121393-60.9101683,2.5258904-11.6158769,2.3745197-25.1909305-6.2784605-33.639291-6.6235604-6.466931-17.4156116-2.4078908-23.9210571,3.1612598-28.5016899,24.3995902-45.4664161,80.9313716-26.7586354,105.9616584,10.4183222,13.9393119,30.893818,22.9966388,48.6562283,19.2979206,72.4073763-15.0775977,96.9532338-112.0033956,97.8500706-181.107087,12.7875241-12.7942372,28.7570112-21.7991136,46.7027781-24.4270287,18.959084,27.0699003,55.4816176,32.5122887,86.4897904,24.5927029l9.5479283,30.3797659-32.9820337,48.3705553c-12.2503078,21.3692922-20.6550686,43.8147466-25.7822571,66.6614399ZM3078.7413595,1087.7123072l13.2308632-65.498534c-7.958074.9646655-14.5779175.2067591-21.9406859-3.8629571,8.4105405-11.0833791,13.0040089-19.3102506,9.1616379-31.9893112-1.2593924-4.1557446-6.5980812-10.1927115-10.4099772-10.5037356-16.5347199-1.3491176-32.7094378,29.8613406-39.935572,50.9286844-11.331752,33.0370166-10.4082449,79.88636,15.5763315,83.1742836,13.4497061,1.7018405,31.2435742-7.0316409,34.3174026-22.24843ZM3638.4594332,1069.6610662c23.7042248-11.3349,28.9383572-40.6865278,15.3045992-61.8693261-22.8834905,12.8720928-45.8759195,47.039469-31.1894242,60.4799401,2.9537606,2.7031591,10.4916949,3.9682761,15.884825,1.389386Z"/>
        <path class="st3" d="M3488.1094235,1064.4883408c-.0478511-.7409269,1.1481174-2.5307741,1.1426895-3.0086009l-1.1426895,3.0086009Z"/>
      </g>
      <g>
        <path class="st0" d="M1749.1635826,1466.7239149c-54.8456812,12.4330678-108.6924852-7.3785982-145.8060973-48.2633855-16.6289769-18.3186746-29.6393038-38.1932289-41.9594465-60.0273149l-65.5717948-116.2080873c-23.9426677-42.4318356-59.3199165-84.3937395-110.7562411-76.512422l-30.3268679,180.6592801c-2.7238288,16.2260395-8.0278974,31.1736775-14.3043778,45.7466801-19.043989,44.2171548-72.736206,65.9115477-114.8787189,38.2103447-20.0371898-13.1708867-33.3068584-37.259688-31.4456985-64.3119864.2197067-3.1934775,3.2119934-8.3845134,5.5854549-10.7516064,12.0275608,10.346446,22.8226384,16.8628155,38.3181936,13.3980629,10.4153881-2.3288447,25.8422503-11.8683124,28.448094-26.5327736l50.1167698-282.0335845c-45.6432695,14.5749884-79.916181,10.0290426-111.4258471-25.7531442-27.2004536-30.8886711-36.9328933-74.228432-25.8669426-115.4258969,19.2176203-71.545343,76.2408418-125.548514,146.813392-146.8806031,87.4111814-26.4219318,197.2961754-21.6088684,258.5065927,51.5801938,31.6448034,37.8375706,47.5669328,86.690508,43.3591462,136.2355688-7.0152576,82.601946-59.4830359,155.6185043-138.0541915,178.4426459,55.1391191,14.8159069,96.3044135,75.4287046,123.7493424,124.1019057,18.1846648,32.2502511,32.3209088,65.0239014,46.7487208,98.9290385,6.3887308,15.0134196,14.1810793,27.2528396,25.8457172,38.7835148,12.2428421,12.102239,35.8280871,19.6127977,49.8527129,5.8850203,20.1018309-19.676351,17.5632693-55.219053-.5510616-75.0986924-14.9400167-16.3959765-38.2175857-12.9052741-46.943745-18.579021-5.4827522-3.5648843,11.1311214-21.3625594,43.2548706-25.1784795,26.520162-3.1502805,52.5564869,5.0535112,70.1329453,24.6007175,16.7470911,18.6248468,22.6999144,40.7313899,21.499398,65.0964563-2.1594548,43.8271893-29.768322,79.7834604-74.3403198,89.8875681ZM1369.2117275,917.7312265l72.9063982-4.1058405c-5.4525355,14.9796422-14.5957735,23.2301361-16.7746739,35.9544614l-24.894202,145.3769677c38.5648299,2.6200433,70.9279849-17.5846101,94.6617977-46.031428,10.4257649-12.4960889,20.5541069-23.6168779,26.3330312-39.8793336,14.0045951-39.4102946,16.5193383-82.7598555,4.9433089-123.1071028-10.0595721-35.061767-35.010346-60.5521502-70.449636-70.1587171-76.6112504-20.7670949-178.466802,6.0212861-203.5030762,88.565562-11.1416153,36.733763-1.4049252,85.2485091,30.4169622,83.7062534,10.5933821-.5134109,20.1430102-7.108411,25.9553972-17.6730592,8.0429581-14.6189549,2.735706-31.316642-6.4292746-47.4871279,12.116216-4.9317558,27.1886088-1.8526323,37.7180484,4.951418,9.7620504,6.3081688,13.5561494,15.8525895,18.2861151,28.4249118,6.1999065-11.4233001,9.2311191-23.3679485,10.8298038-38.5369653Z"/>
        <path class="st0" d="M2636.3878764,673.3223445l2.555353-.002887,9.4920355.0279933,2.5886072.0222384c54.3656443.467048,112.2525871,19.8534017,148.1015148,61.4821773,29.4113431,34.1532726,45.087194,76.6704139,45.4507023,121.3377179l.0248165,3.0494111c.6682249,82.110381-52.4312815,168.7855663-136.5751096,192.4333583,17.5198293,6.8851877,31.7116193,14.1020519,45.0716121,25.4360218,56.7687811,48.1598803,93.8527374,128.3070327,122.6723552,196.9196,6.7064881,15.9665327,15.4029444,30.7477471,27.7844652,42.1798087,11.905632,10.9926656,29.4363258,14.6547235,43.5846565,6.8419617,21.4793871-11.8609989,25.9027995-55.2377203,4.1030248-78.2141404-16.9407707-17.8551507-43.351159-12.760473-47.4910125-19.9202444-3.5470846-6.1345926,17.2306945-20.0512486,41.8477635-23.7431609,37.8842279-5.6816368,71.9326802,13.1286652,87.4211002,48.2071627l20.1315084,38.9755314c4.355241,47.0624656-25.5287284,88.4172691-71.1698482,99.8629722-48.4044606,12.1386829-98.2511556-1.842353-135.2965568-34.8014776-21.6458546-19.2582182-37.0625143-41.672244-51.4317286-66.9225834l-67.3268498-118.3102832c-12.9824408-22.8134282-28.3770999-43.1148126-47.62892-60.1605343-18.9442-16.7733523-43.1206018-23.8859332-67.1004134-20.0318734l-30.2511488,180.4508687c-3.0760768,18.3490793-8.7270616,35.3298532-17.06114,51.4406431-15.3127109,29.6013376-46.8190077,47.3540921-79.4680704,44.8500739-41.2360425-5.9830304-69.1042614-40.739349-63.3844237-81.2003879.924636-1.70287,2.8180567-5.3690409,4.1725782-4.9365091l4.5606421,1.4563244c10.9924815,9.5311787,23.9815806,12.6760495,38.9544967,8.0319562,8.6719662-4.0210566,21.9841461-13.6289198,24.2344662-27.231203l19.456631-117.6075406c-19.1800337,18.3179518-37.2326181,34.4842943-58.256853,48.9928988-26.0479066,17.9753878-70.4965535,20.9698301-84.8779652-11.7693696-5.7445986-13.0775451-6.4157123-28.3014867-3.9022653-42.7558854l16.3147166-93.8231104c.7014509-4.0339229-2.6632502-11.2514872-5.4347394-13.4287031-11.4336693-8.9820183-35.2623083,11.5687453-46.7051729,28.8449408l-25.7032317,143.7240045-64.9251504,4.296035,9.7395176-55.0540458-45.3946022,45.6047568-29.7444627,163.2386251c-7.3627323,40.4069256-24.6779862,89.2029452-56.4202689,113.7549833-21.4034996,16.5551905-48.4370127,17.7713647-70.6120048,2.6648381-18.6660799-12.7161098-32.6556042-30.9185175-35.5599309-54.5695602-5.1619335-42.0355982,10.3530342-100.5067338,41.8318681-132.229409l63.7014636-64.194908c-29.5011316,3.7370513-57.0264504-5.0314923-74.9894607-28.665236-12.6056053,11.8308116-24.6654293,23.3256042-39.3507879,32.2398153-23.9131173,14.5155854-55.6715589,10.2543904-73.4229598-11.466637-14.5003478,11.7516022-30.9207006,23.10971-51.0065205,26.7915415-18.6764686,3.4234903-38.8246596-1.2709285-51.9451989-15.351911-10.8687658-11.6643758-15.7766246-30.0696675-13.4977767-46.0185832l6.1816112-43.263087-17.5397371,12.2701188c-7.3527986,45.2994182-32.4064374,90.1726513-77.1257228,102.2768314-35.1963659,9.5266091-71.4901854-5.8859893-92.1429779-34.912728-16.994403-23.8850071-21.8255922-53.0397577-14.9815546-81.8671376,6.086768-25.6377278,17.6234076-50.6146276,36.1767959-69.6431097,19.5894515-20.0910757,47.348943-31.1383082,74.9001684-30.7127087,45.4776475.7025191,71.9987571,36.1576905,75.2922335,79.36648l21.7743757-17.3418689c3.6941722-15.3229942,6.5883834-32.9718649-1.2366637-48.0377723-1.4191599-2.7323711-3.3688336-11.7252971.4978119-11.9591245l76.3700776-4.6183227-26.7311455,146.2763995c-.7112789,3.8922134,2.0958417,11.0205064,4.4719148,13.3244858,7.4489964,7.2229825,28.0660406.7499524,38.4900436-12.8407926l.2739058-16.9786838,24.9650109-135.709307,63.9733751-4.2951231-23.8652492,138.4666195c-1.1266732,6.5369791-.8611065,17.2348414,1.7106685,22.4552352,2.8901303,5.8666166,14.8057654,3.6709232,18.339955.1771877l17.4414617-17.2418183c-11.8244273-40.0259004-3.5112923-81.3136737,20.1793381-115.5621277,22.4794904-32.4975645,60.2695169-50.7169629,99.8437244-44.983264,17.6842246,2.5621744,27.9531531,15.741699,33.7829148,32.033338l12.9688691-26.6333289,52.8741321-4.5396205c-10.0689551,16.8565268-16.3621127,31.9656471-19.5896107,49.8886938l-14.0625564,78.0926452,43.913081-42.9050819,40.423544-246.765076,67.8492703-3.7770358-29.2725435,164.1907224c13.9373883-9.5215097,25.0611568-17.2125563,39.6766509-20.4719921,20.6650485-4.6085611,43.613304.1434365,57.2105798,17.0212878,10.1670886,12.6200728,13.8631545,31.1710227,11.4380064,47.314635l-13.4934536,89.8225912c-.5981855,3.9819733,2.138102,11.1643905,5.0600938,12.1812422,2.5544475.8889465,9.001242,1.2418344,11.5282772-.7177536,14.9227169-11.571812,30.221345-25.393114,43.0807996-40.6773837l32.8241089-39.0135156,16.3117261-97.7971852c-45.352604,14.9127913-80.2946091,9.7640102-111.8283582-26.662827-27.0673736-31.2674146-36.0364102-74.8737896-24.6793504-116.0384841,19.2583963-69.8038065,74.7396835-122.8591852,143.4595507-144.4353079,31.6829697-9.9475693,62.7279176-15.4681047,95.4035251-15.5050216ZM2585.0825997,832.2508694l73.3102642-4.2375536c-11.0302178,21.8113932-18.1250931,37.7620193-21.6255705,58.9114771l-20.3257435,122.8056646c38.9624597.8336719,72.6034574-18.8392354,96.7591144-48.5802886,11.5079648-14.168896,21.6891874-26.97846,27.0571499-45.4882364,14.6994963-50.6867162,14.3469078-121.662042-23.0075903-158.9348314-41.4667051-41.3760014-120.3646865-39.583965-173.8566114-17.6240218-33.4575777,13.7352788-59.4413432,38.0643119-72.4065004,71.7385846-9.2608189,24.0530319-10.0878587,50.4636096.0344702,74.043605,6.4632405,15.056138,24.4866892,22.6180735,38.9916192,14.8644917,7.7421615-4.1385572,15.5119847-13.5482173,17.4967794-21.7796607,3.545789-14.7052801-2.3916143-26.3243671-9.4009063-40.9124993,26.1371835-6.7718003,50.1900482,7.3663996,55.6726109,34.6332802,7.1906101-13.1082828,9.5460615-24.8002137,11.3009141-39.4400113ZM2132.770811,1152.0639791l11.9105206-62.2561632c-9.2825887,1.0085624-16.0087185.4002797-21.8596834-5.3598931,11.4494641-11.3400897,13.8939163-24.1650972,5.3461016-37.4596437-2.1265353-3.3074327-11.3153827-4.589974-15.0899119-2.0261532-16.5086367,11.2133678-24.2332975,27.6146621-30.4607919,45.7303267-7.804249,22.7024142-11.6228327,45.9612099-4.4360637,68.9807075,4.296278,13.7611436,16.504706,21.925403,30.8375615,16.7684331,10.0605266-3.6197834,21.3994972-12.0797104,23.7522672-24.377614ZM1751.6900516,1134.0888091l.9691753-11.8534041c1.2581803-15.3880507.9127673-30.9873007-10.8006456-42.3409475-11.7649466-11.4035978-32.8700583-11.0922312-43.4557915,2.568761-13.7775429,17.7800539-8.4126738,46.584124,11.8815715,56.6698718,13.2527876,6.5863141,30.2294816,1.4175464,41.4056901-5.0442812ZM1742.4878006,1162.1261724c-35.8050363,9.303692-58.1638287,1.9156904-71.994677-30.6111995-5.0048671,27.4835526-1.1183292,68.6757103,25.3325054,73.9356655,24.0573018,4.7839825,39.806947-17.7814358,46.6621716-43.324466ZM2092.7077842,1394.7205545l14.7666071-87.2020745,4.5937358-36.4809582c-36.6585402,44.6141551-78.2338007,114.0079227-59.4426683,168.1433344,1.3483918,3.8845847,5.62211,8.3175027,8.5942116,8.8852107,13.1252723,2.5070889,28.4014892-35.1178953,31.4881138-53.3455125Z"/>
      </g>
    </g>
  </g>
  
</svg>